<svg width="30" height="30" viewBox="0 0 30 30" fill="none" xmlns="http://www.w3.org/2000/svg">
<path d="M12.1875 27.1875V20.6156C12.1875 20.1562 12.6563 19.6875 13.125 19.6875H16.875C17.3438 19.6875 17.8125 20.1562 17.8125 20.625V27.1875C17.8125 27.4361 17.9113 27.6746 18.0871 27.8504C18.2629 28.0262 18.5014 28.125 18.75 28.125H26.25C26.4986 28.125 26.7371 28.0262 26.9129 27.8504C27.0887 27.6746 27.1875 27.4361 27.1875 27.1875V14.0625C27.1877 13.9393 27.1637 13.8173 27.1167 13.7034C27.0697 13.5895 27.0008 13.486 26.9138 13.3987L24.375 10.8619V4.6875C24.375 4.43886 24.2762 4.2004 24.1004 4.02459C23.9246 3.84877 23.6861 3.75 23.4375 3.75H21.5625C21.3139 3.75 21.0754 3.84877 20.8996 4.02459C20.7238 4.2004 20.625 4.43886 20.625 4.6875V7.11187L15.6638 2.14875C15.5767 2.06144 15.4732 1.99217 15.3593 1.94491C15.2454 1.89765 15.1233 1.87332 15 1.87332C14.8767 1.87332 14.7546 1.89765 14.6407 1.94491C14.5268 1.99217 14.4233 2.06144 14.3363 2.14875L3.08625 13.3987C2.99925 13.486 2.93029 13.5895 2.88332 13.7034C2.83635 13.8173 2.81228 13.9393 2.8125 14.0625V27.1875C2.8125 27.4361 2.91127 27.6746 3.08709 27.8504C3.2629 28.0262 3.50136 28.125 3.75 28.125H11.25C11.4986 28.125 11.7371 28.0262 11.9129 27.8504C12.0887 27.6746 12.1875 27.4361 12.1875 27.1875Z" fill="black"/>
</svg>
