<svg width="64" height="64" viewBox="0 0 64 64" fill="none" xmlns="http://www.w3.org/2000/svg">
<path d="M36 46H32V42C31.9984 40.4092 31.3658 38.884 30.2409 37.7591C29.116 36.6342 27.5908 36.0016 26 36H18C16.4092 36.0016 14.884 36.6342 13.7591 37.7591C12.6342 38.884 12.0016 40.4092 12 42V46H8V42C8.00318 39.3488 9.05776 36.8071 10.9324 34.9324C12.8071 33.0578 15.3488 32.0032 18 32H26C28.6512 32.0032 31.1929 33.0578 33.0676 34.9324C34.9422 36.8071 35.9968 39.3488 36 42V46Z" fill="black"/>
<path d="M22 12C23.1867 12 24.3467 12.3519 25.3334 13.0112C26.3201 13.6705 27.0892 14.6075 27.5433 15.7039C27.9974 16.8003 28.1162 18.0067 27.8847 19.1705C27.6532 20.3344 27.0818 21.4035 26.2426 22.2426C25.4035 23.0818 24.3344 23.6532 23.1705 23.8847C22.0067 24.1162 20.8003 23.9974 19.7039 23.5433C18.6075 23.0892 17.6705 22.3201 17.0112 21.3334C16.3519 20.3467 16 19.1867 16 18C16 16.4087 16.6321 14.8826 17.7574 13.7574C18.8826 12.6321 20.4087 12 22 12ZM22 8C20.0222 8 18.0888 8.58649 16.4443 9.6853C14.7998 10.7841 13.5181 12.3459 12.7612 14.1732C12.0043 16.0004 11.8063 18.0111 12.1922 19.9509C12.578 21.8907 13.5304 23.6725 14.9289 25.0711C16.3275 26.4696 18.1093 27.422 20.0491 27.8079C21.9889 28.1937 23.9996 27.9957 25.8268 27.2388C27.6541 26.4819 29.2159 25.2002 30.3147 23.5557C31.4135 21.9112 32 19.9778 32 18C32 15.3478 30.9464 12.8043 29.0711 10.9289C27.1957 9.05357 24.6522 8 22 8Z" fill="black"/>
<path d="M4 52H60V56H4V52Z" fill="black"/>
<path d="M54.6057 16.0002C53.8942 16.0003 53.1899 16.143 52.5344 16.4199C51.879 16.6967 51.2857 17.1022 50.7897 17.6122L49.9997 18.4202L49.2097 17.6102C48.7135 17.1003 48.1202 16.6949 47.4648 16.4182C46.8094 16.1414 46.1051 15.9988 45.3937 15.9988C44.6822 15.9988 43.9779 16.1414 43.3225 16.4182C42.6671 16.6949 42.0738 17.1003 41.5777 17.6102C40.5659 18.6548 40.0002 20.052 40.0002 21.5062C40.0002 22.9604 40.5659 24.3576 41.5777 25.4022L49.9997 34.0002L58.4197 25.4042C59.4314 24.3596 59.9971 22.9624 59.9971 21.5082C59.9971 20.054 59.4314 18.6568 58.4197 17.6122C57.924 17.1026 57.3314 16.6975 56.6767 16.4206C56.022 16.1438 55.3185 16.0008 54.6077 16.0002H54.6057Z" fill="black"/>
</svg>
